<svg width="24" height="24" viewBox="0 0 24 24" fill="none" xmlns="http://www.w3.org/2000/svg">
<rect width="24" height="24" fill="white"/>
<path d="M12.1429 8.65C11.9496 8.65 11.7929 8.8067 11.7929 9C11.7929 9.1933 11.9496 9.35 12.1429 9.35V8.65ZM6.75251 14.7525C6.61583 14.8892 6.61583 15.1108 6.75251 15.2475L8.9799 17.4749C9.11658 17.6116 9.33819 17.6116 9.47487 17.4749C9.61156 17.3382 9.61156 17.1166 9.47487 16.9799L7.49497 15L9.47487 13.0201C9.61156 12.8834 9.61156 12.6618 9.47487 12.5251C9.33819 12.3884 9.11658 12.3884 8.9799 12.5251L6.75251 14.7525ZM12.1429 9.35C13.4298 9.35 14.2935 9.48074 14.8388 9.85185C15.3453 10.1966 15.65 10.8061 15.65 12H16.35C16.35 10.6939 16.0118 9.80344 15.2326 9.27315C14.4922 8.76926 13.4273 8.65 12.1429 8.65V9.35ZM15.65 12C15.65 13.1583 15.2612 13.7816 14.6888 14.1411C14.0812 14.5229 13.2031 14.65 12.1429 14.65V15.35C13.2255 15.35 14.276 15.2271 15.0612 14.7339C15.8817 14.2184 16.35 13.3417 16.35 12H15.65ZM12.1429 14.65C12.1402 14.65 12.1375 14.65 12.1348 14.65C12.1321 14.65 12.1294 14.65 12.1267 14.65C12.124 14.65 12.1213 14.65 12.1186 14.65C12.1159 14.65 12.1132 14.65 12.1104 14.65C12.1077 14.65 12.105 14.65 12.1022 14.65C12.0995 14.65 12.0968 14.65 12.094 14.65C12.0913 14.65 12.0885 14.65 12.0858 14.65C12.083 14.65 12.0802 14.65 12.0775 14.65C12.0747 14.65 12.0719 14.65 12.0691 14.65C12.0663 14.65 12.0636 14.65 12.0608 14.65C12.058 14.65 12.0552 14.65 12.0524 14.65C12.0496 14.65 12.0467 14.65 12.0439 14.65C12.0411 14.65 12.0383 14.65 12.0355 14.65C12.0326 14.65 12.0298 14.65 12.027 14.65C12.0241 14.65 12.0213 14.65 12.0184 14.65C12.0156 14.65 12.0127 14.65 12.0099 14.65C12.007 14.65 12.0041 14.65 12.0013 14.65C11.9984 14.65 11.9955 14.65 11.9927 14.65C11.9898 14.65 11.9869 14.65 11.984 14.65C11.9811 14.65 11.9782 14.65 11.9753 14.65C11.9724 14.65 11.9695 14.65 11.9666 14.65C11.9637 14.65 11.9607 14.65 11.9578 14.65C11.9549 14.65 11.952 14.65 11.949 14.65C11.9461 14.65 11.9431 14.65 11.9402 14.65C11.9373 14.65 11.9343 14.65 11.9313 14.65C11.9284 14.65 11.9254 14.65 11.9225 14.65C11.9195 14.65 11.9165 14.65 11.9135 14.65C11.9106 14.65 11.9076 14.65 11.9046 14.65C11.9016 14.65 11.8986 14.65 11.8956 14.65C11.8926 14.65 11.8896 14.65 11.8866 14.65C11.8836 14.65 11.8806 14.65 11.8776 14.65C11.8746 14.65 11.8715 14.65 11.8685 14.65C11.8655 14.65 11.8625 14.65 11.8594 14.65C11.8564 14.65 11.8533 14.65 11.8503 14.65C11.8472 14.65 11.8442 14.65 11.8411 14.65C11.8381 14.65 11.835 14.65 11.8319 14.65C11.8289 14.65 11.8258 14.65 11.8227 14.65C11.8196 14.65 11.8166 14.65 11.8135 14.65C11.8104 14.65 11.8073 14.65 11.8042 14.65C11.8011 14.65 11.798 14.65 11.7949 14.65C11.7918 14.65 11.7887 14.65 11.7856 14.65C11.7824 14.65 11.7793 14.65 11.7762 14.65C11.7731 14.65 11.7699 14.65 11.7668 14.65C11.7637 14.65 11.7605 14.65 11.7574 14.65C11.7542 14.65 11.7511 14.65 11.7479 14.65C11.7448 14.65 11.7416 14.65 11.7385 14.65C11.7353 14.65 11.7321 14.65 11.729 14.65C11.7258 14.65 11.7226 14.65 11.7194 14.65C11.7162 14.65 11.7131 14.65 11.7099 14.65C11.7067 14.65 11.7035 14.65 11.7003 14.65C11.6971 14.65 11.6939 14.65 11.6907 14.65C11.6875 14.65 11.6842 14.65 11.681 14.65C11.6778 14.65 11.6746 14.65 11.6714 14.65C11.6681 14.65 11.6649 14.65 11.6617 14.65C11.6584 14.65 11.6552 14.65 11.6519 14.65C11.6487 14.65 11.6455 14.65 11.6422 14.65C11.6389 14.65 11.6357 14.65 11.6324 14.65C11.6292 14.65 11.6259 14.65 11.6226 14.65C11.6194 14.65 11.6161 14.65 11.6128 14.65C11.6095 14.65 11.6062 14.65 11.6029 14.65C11.5997 14.65 11.5964 14.65 11.5931 14.65C11.5898 14.65 11.5865 14.65 11.5832 14.65C11.5799 14.65 11.5765 14.65 11.5732 14.65C11.5699 14.65 11.5666 14.65 11.5633 14.65C11.56 14.65 11.5566 14.65 11.5533 14.65C11.55 14.65 11.5466 14.65 11.5433 14.65C11.54 14.65 11.5366 14.65 11.5333 14.65C11.5299 14.65 11.5266 14.65 11.5232 14.65C11.5199 14.65 11.5165 14.65 11.5131 14.65C11.5098 14.65 11.5064 14.65 11.503 14.65C11.4997 14.65 11.4963 14.65 11.4929 14.65C11.4895 14.65 11.4862 14.65 11.4828 14.65C11.4794 14.65 11.476 14.65 11.4726 14.65C11.4692 14.65 11.4658 14.65 11.4624 14.65C11.459 14.65 11.4556 14.65 11.4522 14.65C11.4488 14.65 11.4454 14.65 11.4419 14.65C11.4385 14.65 11.4351 14.65 11.4317 14.65C11.4282 14.65 11.4248 14.65 11.4214 14.65C11.4179 14.65 11.4145 14.65 11.4111 14.65C11.4076 14.65 11.4042 14.65 11.4007 14.65C11.3973 14.65 11.3938 14.65 11.3904 14.65C11.3869 14.65 11.3835 14.65 11.38 14.65C11.3765 14.65 11.3731 14.65 11.3696 14.65C11.3661 14.65 11.3626 14.65 11.3592 14.65C11.3557 14.65 11.3522 14.65 11.3487 14.65C11.3452 14.65 11.3418 14.65 11.3383 14.65C11.3348 14.65 11.3313 14.65 11.3278 14.65C11.3243 14.65 11.3208 14.65 11.3173 14.65C11.3138 14.65 11.3102 14.65 11.3067 14.65C11.3032 14.65 11.2997 14.65 11.2962 14.65C11.2927 14.65 11.2891 14.65 11.2856 14.65C11.2821 14.65 11.2785 14.65 11.275 14.65C11.2715 14.65 11.2679 14.65 11.2644 14.65C11.2609 14.65 11.2573 14.65 11.2538 14.65C11.2502 14.65 11.2467 14.65 11.2431 14.65C11.2396 14.65 11.236 14.65 11.2324 14.65C11.2289 14.65 11.2253 14.65 11.2217 14.65C11.2182 14.65 11.2146 14.65 11.211 14.65C11.2075 14.65 11.2039 14.65 11.2003 14.65C11.1967 14.65 11.1931 14.65 11.1895 14.65C11.186 14.65 11.1824 14.65 11.1788 14.65C11.1752 14.65 11.1716 14.65 11.168 14.65C11.1644 14.65 11.1608 14.65 11.1572 14.65C11.1536 14.65 11.15 14.65 11.1463 14.65C11.1427 14.65 11.1391 14.65 11.1355 14.65C11.1319 14.65 11.1283 14.65 11.1246 14.65C11.121 14.65 11.1174 14.65 11.1137 14.65C11.1101 14.65 11.1065 14.65 11.1028 14.65C11.0992 14.65 11.0956 14.65 11.0919 14.65C11.0883 14.65 11.0846 14.65 11.081 14.65C11.0773 14.65 11.0737 14.65 11.07 14.65C11.0664 14.65 11.0627 14.65 11.0591 14.65C11.0554 14.65 11.0517 14.65 11.0481 14.65C11.0444 14.65 11.0407 14.65 11.0371 14.65C11.0334 14.65 11.0297 14.65 11.026 14.65C11.0224 14.65 11.0187 14.65 11.015 14.65C11.0113 14.65 11.0076 14.65 11.0039 14.65C11.0002 14.65 10.9966 14.65 10.9929 14.65C10.9892 14.65 10.9855 14.65 10.9818 14.65C10.9781 14.65 10.9744 14.65 10.9707 14.65C10.967 14.65 10.9633 14.65 10.9595 14.65C10.9558 14.65 10.9521 14.65 10.9484 14.65C10.9447 14.65 10.941 14.65 10.9372 14.65C10.9335 14.65 10.9298 14.65 10.9261 14.65C10.9224 14.65 10.9186 14.65 10.9149 14.65C10.9112 14.65 10.9074 14.65 10.9037 14.65C10.9 14.65 10.8962 14.65 10.8925 14.65C10.8887 14.65 10.885 14.65 10.8812 14.65C10.8775 14.65 10.8738 14.65 10.87 14.65C10.8663 14.65 10.8625 14.65 10.8587 14.65C10.855 14.65 10.8512 14.65 10.8475 14.65C10.8437 14.65 10.8399 14.65 10.8362 14.65C10.8324 14.65 10.8287 14.65 10.8249 14.65C10.8211 14.65 10.8173 14.65 10.8136 14.65C10.8098 14.65 10.806 14.65 10.8022 14.65C10.7985 14.65 10.7947 14.65 10.7909 14.65C10.7871 14.65 10.7833 14.65 10.7795 14.65C10.7757 14.65 10.772 14.65 10.7682 14.65C10.7644 14.65 10.7606 14.65 10.7568 14.65C10.753 14.65 10.7492 14.65 10.7454 14.65C10.7416 14.65 10.7378 14.65 10.734 14.65C10.7302 14.65 10.7264 14.65 10.7226 14.65C10.7187 14.65 10.7149 14.65 10.7111 14.65C10.7073 14.65 10.7035 14.65 10.6997 14.65C10.6959 14.65 10.692 14.65 10.6882 14.65C10.6844 14.65 10.6806 14.65 10.6767 14.65C10.6729 14.65 10.6691 14.65 10.6653 14.65C10.6614 14.65 10.6576 14.65 10.6538 14.65C10.6499 14.65 10.6461 14.65 10.6423 14.65C10.6384 14.65 10.6346 14.65 10.6308 14.65C10.6269 14.65 10.6231 14.65 10.6192 14.65C10.6154 14.65 10.6115 14.65 10.6077 14.65C10.6038 14.65 10.6 14.65 10.5961 14.65C10.5923 14.65 10.5884 14.65 10.5846 14.65C10.5807 14.65 10.5769 14.65 10.573 14.65C10.5691 14.65 10.5653 14.65 10.5614 14.65C10.5576 14.65 10.5537 14.65 10.5498 14.65C10.546 14.65 10.5421 14.65 10.5382 14.65C10.5344 14.65 10.5305 14.65 10.5266 14.65C10.5227 14.65 10.5189 14.65 10.515 14.65C10.5111 14.65 10.5072 14.65 10.5034 14.65C10.4995 14.65 10.4956 14.65 10.4917 14.65C10.4878 14.65 10.484 14.65 10.4801 14.65C10.4762 14.65 10.4723 14.65 10.4684 14.65C10.4645 14.65 10.4606 14.65 10.4568 14.65C10.4529 14.65 10.449 14.65 10.4451 14.65C10.4412 14.65 10.4373 14.65 10.4334 14.65C10.4295 14.65 10.4256 14.65 10.4217 14.65C10.4178 14.65 10.4139 14.65 10.41 14.65C10.4061 14.65 10.4022 14.65 10.3983 14.65C10.3944 14.65 10.3905 14.65 10.3866 14.65C10.3827 14.65 10.3788 14.65 10.3748 14.65C10.3709 14.65 10.367 14.65 10.3631 14.65C10.3592 14.65 10.3553 14.65 10.3514 14.65C10.3475 14.65 10.3435 14.65 10.3396 14.65C10.3357 14.65 10.3318 14.65 10.3279 14.65C10.3239 14.65 10.32 14.65 10.3161 14.65C10.3122 14.65 10.3083 14.65 10.3043 14.65C10.3004 14.65 10.2965 14.65 10.2926 14.65C10.2886 14.65 10.2847 14.65 10.2808 14.65C10.2769 14.65 10.2729 14.65 10.269 14.65C10.2651 14.65 10.2611 14.65 10.2572 14.65C10.2533 14.65 10.2493 14.65 10.2454 14.65C10.2415 14.65 10.2375 14.65 10.2336 14.65C10.2297 14.65 10.2257 14.65 10.2218 14.65C10.2178 14.65 10.2139 14.65 10.21 14.65C10.206 14.65 10.2021 14.65 10.1981 14.65C10.1942 14.65 10.1903 14.65 10.1863 14.65C10.1824 14.65 10.1784 14.65 10.1745 14.65C10.1705 14.65 10.1666 14.65 10.1626 14.65C10.1587 14.65 10.1547 14.65 10.1508 14.65C10.1468 14.65 10.1429 14.65 10.139 14.65C10.135 14.65 10.1311 14.65 10.1271 14.65C10.1231 14.65 10.1192 14.65 10.1152 14.65C10.1113 14.65 10.1073 14.65 10.1034 14.65C10.0994 14.65 10.0955 14.65 10.0915 14.65C10.0876 14.65 10.0836 14.65 10.0797 14.65C10.0757 14.65 10.0717 14.65 10.0678 14.65C10.0638 14.65 10.0599 14.65 10.0559 14.65C10.0519 14.65 10.048 14.65 10.044 14.65C10.0401 14.65 10.0361 14.65 10.0321 14.65C10.0282 14.65 10.0242 14.65 10.0203 14.65C10.0163 14.65 10.0123 14.65 10.0084 14.65C10.0044 14.65 10.0004 14.65 9.99648 14.65C9.99252 14.65 9.98856 14.65 9.98459 14.65C9.98063 14.65 9.97666 14.65 9.9727 14.65C9.96873 14.65 9.96477 14.65 9.9608 14.65C9.95684 14.65 9.95287 14.65 9.9489 14.65C9.94494 14.65 9.94097 14.65 9.937 14.65C9.93304 14.65 9.92907 14.65 9.9251 14.65C9.92113 14.65 9.91716 14.65 9.9132 14.65C9.90923 14.65 9.90526 14.65 9.90129 14.65C9.89732 14.65 9.89335 14.65 9.88939 14.65C9.88542 14.65 9.88145 14.65 9.87748 14.65C9.87351 14.65 9.86954 14.65 9.86557 14.65C9.8616 14.65 9.85763 14.65 9.85366 14.65C9.84969 14.65 9.84572 14.65 9.84175 14.65C9.83778 14.65 9.83381 14.65 9.82984 14.65C9.82587 14.65 9.8219 14.65 9.81793 14.65C9.81396 14.65 9.80999 14.65 9.80602 14.65C9.80205 14.65 9.79808 14.65 9.79411 14.65C9.79014 14.65 9.78617 14.65 9.7822 14.65C9.77823 14.65 9.77426 14.65 9.77029 14.65C9.76632 14.65 9.76235 14.65 9.75838 14.65C9.75442 14.65 9.75045 14.65 9.74648 14.65C9.74251 14.65 9.73854 14.65 9.73457 14.65C9.7306 14.65 9.72663 14.65 9.72266 14.65C9.71869 14.65 9.71473 14.65 9.71076 14.65C9.70679 14.65 9.70282 14.65 9.69885 14.65C9.69489 14.65 9.69092 14.65 9.68695 14.65C9.68299 14.65 9.67902 14.65 9.67505 14.65C9.67109 14.65 9.66712 14.65 9.66315 14.65C9.65919 14.65 9.65522 14.65 9.65126 14.65C9.64729 14.65 9.64333 14.65 9.63936 14.65C9.6354 14.65 9.63144 14.65 9.62747 14.65C9.62351 14.65 9.61955 14.65 9.61558 14.65C9.61162 14.65 9.60766 14.65 9.6037 14.65C9.59973 14.65 9.59577 14.65 9.59181 14.65C9.58785 14.65 9.58389 14.65 9.57993 14.65C9.57597 14.65 9.57201 14.65 9.56805 14.65C9.5641 14.65 9.56014 14.65 9.55618 14.65C9.55222 14.65 9.54827 14.65 9.54431 14.65C9.54035 14.65 9.5364 14.65 9.53244 14.65C9.52849 14.65 9.52453 14.65 9.52058 14.65C9.51662 14.65 9.51267 14.65 9.50872 14.65C9.50477 14.65 9.50081 14.65 9.49686 14.65C9.49291 14.65 9.48896 14.65 9.48501 14.65C9.48106 14.65 9.47711 14.65 9.47317 14.65C9.46922 14.65 9.46527 14.65 9.46132 14.65C9.45738 14.65 9.45343 14.65 9.44949 14.65C9.44554 14.65 9.4416 14.65 9.43765 14.65C9.43371 14.65 9.42977 14.65 9.42583 14.65C9.42189 14.65 9.41794 14.65 9.414 14.65C9.41006 14.65 9.40613 14.65 9.40219 14.65C9.39825 14.65 9.39431 14.65 9.39038 14.65C9.38644 14.65 9.38251 14.65 9.37857 14.65C9.37464 14.65 9.3707 14.65 9.36677 14.65C9.36284 14.65 9.35891 14.65 9.35498 14.65C9.35105 14.65 9.34712 14.65 9.34319 14.65C9.33926 14.65 9.33534 14.65 9.33141 14.65C9.32748 14.65 9.32356 14.65 9.31964 14.65C9.31571 14.65 9.31179 14.65 9.30787 14.65C9.30395 14.65 9.30003 14.65 9.29611 14.65C9.29219 14.65 9.28827 14.65 9.28435 14.65C9.28044 14.65 9.27652 14.65 9.27261 14.65C9.26869 14.65 9.26478 14.65 9.26087 14.65C9.25696 14.65 9.25305 14.65 9.24914 14.65C9.24523 14.65 9.24132 14.65 9.23741 14.65C9.23351 14.65 9.2296 14.65 9.2257 14.65C9.22179 14.65 9.21789 14.65 9.21399 14.65C9.21009 14.65 9.20619 14.65 9.20229 14.65C9.19839 14.65 9.19449 14.65 9.1906 14.65C9.1867 14.65 9.1828 14.65 9.17891 14.65C9.17502 14.65 9.17113 14.65 9.16724 14.65C9.16335 14.65 9.15946 14.65 9.15557 14.65C9.15168 14.65 9.1478 14.65 9.14391 14.65C9.14003 14.65 9.13615 14.65 9.13227 14.65C9.12838 14.65 9.12451 14.65 9.12063 14.65C9.11675 14.65 9.11287 14.65 9.109 14.65C9.10512 14.65 9.10125 14.65 9.09738 14.65C9.09351 14.65 9.08964 14.65 9.08577 14.65C9.0819 14.65 9.07803 14.65 9.07417 14.65C9.0703 14.65 9.06644 14.65 9.06258 14.65C9.05872 14.65 9.05486 14.65 9.051 14.65C9.04714 14.65 9.04328 14.65 9.03943 14.65C9.03557 14.65 9.03172 14.65 9.02787 14.65C9.02402 14.65 9.02017 14.65 9.01632 14.65C9.01247 14.65 9.00863 14.65 9.00479 14.65C9.00094 14.65 8.9971 14.65 8.99326 14.65C8.98942 14.65 8.98558 14.65 8.98174 14.65C8.97791 14.65 8.97407 14.65 8.97024 14.65C8.96641 14.65 8.96258 14.65 8.95875 14.65C8.95492 14.65 8.95109 14.65 8.94727 14.65C8.94344 14.65 8.93962 14.65 8.9358 14.65C8.93198 14.65 8.92816 14.65 8.92434 14.65C8.92053 14.65 8.91671 14.65 8.9129 14.65C8.90909 14.65 8.90527 14.65 8.90147 14.65C8.89766 14.65 8.89385 14.65 8.89005 14.65C8.88624 14.65 8.88244 14.65 8.87864 14.65C8.87484 14.65 8.87104 14.65 8.86725 14.65C8.86345 14.65 8.85966 14.65 8.85586 14.65C8.85207 14.65 8.84828 14.65 8.8445 14.65C8.84071 14.65 8.83692 14.65 8.83314 14.65C8.82936 14.65 8.82558 14.65 8.8218 14.65C8.81802 14.65 8.81425 14.65 8.81047 14.65C8.8067 14.65 8.80293 14.65 8.79916 14.65C8.79539 14.65 8.79162 14.65 8.78786 14.65C8.78409 14.65 8.78033 14.65 8.77657 14.65C8.77281 14.65 8.76906 14.65 8.7653 14.65C8.76155 14.65 8.75779 14.65 8.75404 14.65C8.75029 14.65 8.74655 14.65 8.7428 14.65C8.73906 14.65 8.73531 14.65 8.73157 14.65C8.72783 14.65 8.72409 14.65 8.72036 14.65C8.71662 14.65 8.71289 14.65 8.70916 14.65C8.70543 14.65 8.7017 14.65 8.69798 14.65C8.69425 14.65 8.69053 14.65 8.68681 14.65C8.68309 14.65 8.67937 14.65 8.67566 14.65C8.67195 14.65 8.66823 14.65 8.66452 14.65C8.66081 14.65 8.65711 14.65 8.6534 14.65C8.6497 14.65 8.646 14.65 8.6423 14.65C8.6386 14.65 8.6349 14.65 8.63121 14.65C8.62752 14.65 8.62383 14.65 8.62014 14.65C8.61645 14.65 8.61277 14.65 8.60908 14.65C8.6054 14.65 8.60172 14.65 8.59805 14.65C8.59437 14.65 8.59069 14.65 8.58702 14.65C8.58335 14.65 8.57968 14.65 8.57602 14.65C8.57235 14.65 8.56869 14.65 8.56503 14.65C8.56137 14.65 8.55772 14.65 8.55406 14.65C8.55041 14.65 8.54676 14.65 8.54311 14.65C8.53946 14.65 8.53582 14.65 8.53217 14.65C8.52853 14.65 8.52489 14.65 8.52126 14.65C8.51762 14.65 8.51399 14.65 8.51036 14.65C8.50673 14.65 8.5031 14.65 8.49948 14.65C8.49585 14.65 8.49223 14.65 8.48861 14.65C8.48499 14.65 8.48138 14.65 8.47777 14.65C8.47416 14.65 8.47055 14.65 8.46694 14.65C8.46334 14.65 8.45973 14.65 8.45613 14.65C8.45254 14.65 8.44894 14.65 8.44535 14.65C8.44175 14.65 8.43816 14.65 8.43458 14.65C8.43099 14.65 8.42741 14.65 8.42383 14.65C8.42025 14.65 8.41667 14.65 8.4131 14.65C8.40952 14.65 8.40595 14.65 8.40239 14.65C8.39882 14.65 8.39525 14.65 8.39169 14.65C8.38813 14.65 8.38458 14.65 8.38102 14.65C8.37747 14.65 8.37392 14.65 8.37037 14.65C8.36682 14.65 8.36328 14.65 8.35974 14.65C8.3562 14.65 8.35266 14.65 8.34913 14.65C8.3456 14.65 8.34207 14.65 8.33854 14.65C8.33501 14.65 8.33149 14.65 8.32797 14.65C8.32445 14.65 8.32093 14.65 8.31742 14.65C8.31391 14.65 8.3104 14.65 8.30689 14.65C8.30339 14.65 8.29989 14.65 8.29639 14.65C8.29289 14.65 8.28939 14.65 8.2859 14.65C8.28241 14.65 8.27892 14.65 8.27544 14.65C8.27195 14.65 8.26847 14.65 8.265 14.65C8.26152 14.65 8.25805 14.65 8.25458 14.65C8.25111 14.65 8.24764 14.65 8.24418 14.65C8.24072 14.65 8.23726 14.65 8.2338 14.65C8.23035 14.65 8.2269 14.65 8.22345 14.65C8.22 14.65 8.21656 14.65 8.21312 14.65C8.20968 14.65 8.20624 14.65 8.20281 14.65C8.19938 14.65 8.19595 14.65 8.19252 14.65C8.1891 14.65 8.18568 14.65 8.18226 14.65C8.17884 14.65 8.17543 14.65 8.17202 14.65C8.16861 14.65 8.1652 14.65 8.1618 14.65C8.1584 14.65 8.155 14.65 8.15161 14.65C8.14822 14.65 8.14483 14.65 8.14144 14.65C8.13805 14.65 8.13467 14.65 8.13129 14.65C8.12792 14.65 8.12454 14.65 8.12117 14.65C8.1178 14.65 8.11444 14.65 8.11107 14.65C8.10771 14.65 8.10435 14.65 8.101 14.65C8.09765 14.65 8.0943 14.65 8.09095 14.65C8.08761 14.65 8.08426 14.65 8.08093 14.65C8.07759 14.65 8.07426 14.65 8.07093 14.65C8.0676 14.65 8.06427 14.65 8.06095 14.65C8.05763 14.65 8.05431 14.65 8.051 14.65C8.04769 14.65 8.04438 14.65 8.04108 14.65C8.03777 14.65 8.03447 14.65 8.03118 14.65C8.02788 14.65 8.02459 14.65 8.0213 14.65C8.01802 14.65 8.01473 14.65 8.01145 14.65C8.00818 14.65 8.0049 14.65 8.00163 14.65C7.99836 14.65 7.9951 14.65 7.99184 14.65C7.98857 14.65 7.98532 14.65 7.98207 14.65C7.97881 14.65 7.97556 14.65 7.97232 14.65C7.96908 14.65 7.96584 14.65 7.9626 14.65C7.95937 14.65 7.95614 14.65 7.95291 14.65C7.94969 14.65 7.94647 14.65 7.94325 14.65C7.94003 14.65 7.93682 14.65 7.93361 14.65C7.9304 14.65 7.9272 14.65 7.924 14.65C7.9208 14.65 7.91761 14.65 7.91442 14.65C7.91123 14.65 7.90804 14.65 7.90486 14.65C7.90168 14.65 7.89851 14.65 7.89534 14.65C7.89217 14.65 7.889 14.65 7.88584 14.65C7.88267 14.65 7.87952 14.65 7.87637 14.65C7.87321 14.65 7.87006 14.65 7.86692 14.65C7.86378 14.65 7.86064 14.65 7.85751 14.65C7.85437 14.65 7.85124 14.65 7.84812 14.65C7.84499 14.65 7.84187 14.65 7.83876 14.65C7.83565 14.65 7.83254 14.65 7.82943 14.65C7.82633 14.65 7.82322 14.65 7.82013 14.65C7.81703 14.65 7.81394 14.65 7.81086 14.65C7.80777 14.65 7.80469 14.65 7.80161 14.65C7.79854 14.65 7.79547 14.65 7.7924 14.65C7.78934 14.65 7.78627 14.65 7.78322 14.65C7.78016 14.65 7.77711 14.65 7.77406 14.65C7.77102 14.65 7.76798 14.65 7.76494 14.65C7.7619 14.65 7.75887 14.65 7.75585 14.65C7.75282 14.65 7.7498 14.65 7.74678 14.65C7.74377 14.65 7.74075 14.65 7.73775 14.65C7.73474 14.65 7.73174 14.65 7.72875 14.65C7.72575 14.65 7.72276 14.65 7.71977 14.65C7.71679 14.65 7.71381 14.65 7.71083 14.65C7.70786 14.65 7.70489 14.65 7.70192 14.65C7.69896 14.65 7.696 14.65 7.69304 14.65C7.69009 14.65 7.68714 14.65 7.68419 14.65C7.68125 14.65 7.67831 14.65 7.67538 14.65C7.67244 14.65 7.66951 14.65 7.66659 14.65C7.66367 14.65 7.66075 14.65 7.65784 14.65C7.65493 14.65 7.65202 14.65 7.64912 14.65C7.64622 14.65 7.64332 14.65 7.64043 14.65C7.63754 14.65 7.63465 14.65 7.63177 14.65C7.62889 14.65 7.62602 14.65 7.62315 14.65C7.62028 14.65 7.61741 14.65 7.61456 14.65C7.6117 14.65 7.60884 14.65 7.606 14.65C7.60315 14.65 7.60031 14.65 7.59747 14.65C7.59463 14.65 7.5918 14.65 7.58898 14.65C7.58615 14.65 7.58333 14.65 7.58052 14.65C7.5777 14.65 7.57489 14.65 7.57209 14.65C7.56929 14.65 7.56649 14.65 7.5637 14.65C7.56091 14.65 7.55812 14.65 7.55534 14.65C7.55256 14.65 7.54978 14.65 7.54701 14.65C7.54424 14.65 7.54148 14.65 7.53872 14.65C7.53596 14.65 7.53321 14.65 7.53047 14.65C7.52772 14.65 7.52498 14.65 7.52224 14.65C7.51951 14.65 7.51678 14.65 7.51405 14.65C7.51133 14.65 7.50861 14.65 7.5059 14.65C7.50319 14.65 7.50048 14.65 7.49778 14.65C7.49508 14.65 7.49239 14.65 7.4897 14.65C7.48701 14.65 7.48433 14.65 7.48165 14.65C7.47897 14.65 7.4763 14.65 7.47364 14.65C7.47097 14.65 7.46831 14.65 7.46566 14.65C7.46301 14.65 7.46036 14.65 7.45772 14.65C7.45508 14.65 7.45244 14.65 7.44981 14.65C7.44718 14.65 7.44456 14.65 7.44194 14.65C7.43933 14.65 7.43671 14.65 7.43411 14.65C7.4315 14.65 7.4289 14.65 7.42631 14.65C7.42372 14.65 7.42113 14.65 7.41855 14.65C7.41597 14.65 7.41339 14.65 7.41083 14.65C7.40826 14.65 7.40569 14.65 7.40314 14.65C7.40058 14.65 7.39803 14.65 7.39549 14.65C7.39294 14.65 7.39041 14.65 7.38787 14.65C7.38534 14.65 7.38282 14.65 7.3803 14.65C7.37778 14.65 7.37527 14.65 7.37276 14.65C7.37025 14.65 7.36775 14.65 7.36526 14.65C7.36276 14.65 7.36028 14.65 7.35779 14.65C7.35531 14.65 7.35284 14.65 7.35037 14.65C7.3479 14.65 7.34544 14.65 7.34298 14.65C7.34052 14.65 7.33807 14.65 7.33563 14.65C7.33319 14.65 7.33075 14.65 7.32832 14.65C7.32589 14.65 7.32346 14.65 7.32105 14.65C7.31863 14.65 7.31622 14.65 7.31381 14.65C7.31141 14.65 7.30901 14.65 7.30662 14.65C7.30423 14.65 7.30184 14.65 7.29946 14.65C7.29708 14.65 7.29471 14.65 7.29235 14.65C7.28998 14.65 7.28762 14.65 7.28527 14.65C7.28292 14.65 7.28057 14.65 7.27823 14.65C7.27589 14.65 7.27356 14.65 7.27123 14.65C7.26891 14.65 7.26659 14.65 7.26427 14.65C7.26196 14.65 7.25966 14.65 7.25736 14.65C7.25506 14.65 7.25276 14.65 7.25048 14.65C7.24819 14.65 7.24591 14.65 7.24364 14.65C7.24137 14.65 7.2391 14.65 7.23684 14.65C7.23458 14.65 7.23233 14.65 7.23009 14.65C7.22784 14.65 7.2256 14.65 7.22337 14.65C7.22114 14.65 7.21891 14.65 7.2167 14.65C7.21448 14.65 7.21227 14.65 7.21006 14.65C7.20786 14.65 7.20566 14.65 7.20347 14.65C7.20128 14.65 7.1991 14.65 7.19692 14.65C7.19474 14.65 7.19257 14.65 7.19041 14.65C7.18825 14.65 7.18609 14.65 7.18394 14.65C7.18179 14.65 7.17965 14.65 7.17752 14.65C7.17538 14.65 7.17325 14.65 7.17113 14.65C7.16901 14.65 7.1669 14.65 7.16479 14.65C7.16269 14.65 7.16059 14.65 7.15849 14.65C7.1564 14.65 7.15432 14.65 7.15224 14.65C7.15016 14.65 7.14809 14.65 7.14602 14.65C7.14396 14.65 7.1419 14.65 7.13985 14.65C7.1378 14.65 7.13576 14.65 7.13373 14.65C7.13169 14.65 7.12966 14.65 7.12764 14.65C7.12562 14.65 7.12361 14.65 7.1216 14.65C7.11959 14.65 7.11759 14.65 7.1156 14.65C7.11361 14.65 7.11163 14.65 7.10965 14.65C7.10767 14.65 7.1057 14.65 7.10374 14.65C7.10178 14.65 7.09982 14.65 7.09787 14.65C7.09593 14.65 7.09398 14.65 7.09205 14.65C7.09012 14.65 7.08819 14.65 7.08627 14.65C7.08436 14.65 7.08244 14.65 7.08054 14.65C7.07864 14.65 7.07674 14.65 7.07485 14.65C7.07296 14.65 7.07108 14.65 7.06921 14.65C7.06734 14.65 7.06547 14.65 7.06361 14.65C7.06175 14.65 7.0599 14.65 7.05806 14.65C7.05621 14.65 7.05438 14.65 7.05255 14.65C7.05072 14.65 7.0489 14.65 7.04709 14.65C7.04528 14.65 7.04347 14.65 7.04167 14.65C7.03987 14.65 7.03808 14.65 7.0363 14.65C7.03452 14.65 7.03274 14.65 7.03098 14.65C7.02921 14.65 7.02745 14.65 7.0257 14.65C7.02394 14.65 7.0222 14.65 7.02046 14.65C7.01873 14.65 7.017 14.65 7.01528 14.65C7.01356 14.65 7.01184 14.65 7.01014 14.65C7.00843 14.65 7.00674 14.65 7.00505 14.65C7.00336 14.65 7.00167 14.65 7 14.65V15.35C7.00167 15.35 7.00336 15.35 7.00505 15.35C7.00674 15.35 7.00843 15.35 7.01014 15.35C7.01184 15.35 7.01356 15.35 7.01528 15.35C7.017 15.35 7.01873 15.35 7.02046 15.35C7.0222 15.35 7.02394 15.35 7.0257 15.35C7.02745 15.35 7.02921 15.35 7.03098 15.35C7.03274 15.35 7.03452 15.35 7.0363 15.35C7.03808 15.35 7.03987 15.35 7.04167 15.35C7.04347 15.35 7.04528 15.35 7.04709 15.35C7.0489 15.35 7.05072 15.35 7.05255 15.35C7.05438 15.35 7.05621 15.35 7.05806 15.35C7.0599 15.35 7.06175 15.35 7.06361 15.35C7.06547 15.35 7.06734 15.35 7.06921 15.35C7.07108 15.35 7.07296 15.35 7.07485 15.35C7.07674 15.35 7.07864 15.35 7.08054 15.35C7.08244 15.35 7.08436 15.35 7.08627 15.35C7.08819 15.35 7.09012 15.35 7.09205 15.35C7.09398 15.35 7.09593 15.35 7.09787 15.35C7.09982 15.35 7.10178 15.35 7.10374 15.35C7.1057 15.35 7.10767 15.35 7.10965 15.35C7.11163 15.35 7.11361 15.35 7.1156 15.35C7.11759 15.35 7.11959 15.35 7.1216 15.35C7.12361 15.35 7.12562 15.35 7.12764 15.35C7.12966 15.35 7.13169 15.35 7.13373 15.35C7.13576 15.35 7.1378 15.35 7.13985 15.35C7.1419 15.35 7.14396 15.35 7.14602 15.35C7.14809 15.35 7.15016 15.35 7.15224 15.35C7.15432 15.35 7.1564 15.35 7.15849 15.35C7.16059 15.35 7.16269 15.35 7.16479 15.35C7.1669 15.35 7.16901 15.35 7.17113 15.35C7.17325 15.35 7.17538 15.35 7.17752 15.35C7.17965 15.35 7.18179 15.35 7.18394 15.35C7.18609 15.35 7.18825 15.35 7.19041 15.35C7.19257 15.35 7.19474 15.35 7.19692 15.35C7.1991 15.35 7.20128 15.35 7.20347 15.35C7.20566 15.35 7.20786 15.35 7.21006 15.35C7.21227 15.35 7.21448 15.35 7.2167 15.35C7.21891 15.35 7.22114 15.35 7.22337 15.35C7.2256 15.35 7.22784 15.35 7.23009 15.35C7.23233 15.35 7.23458 15.35 7.23684 15.35C7.2391 15.35 7.24137 15.35 7.24364 15.35C7.24591 15.35 7.24819 15.35 7.25048 15.35C7.25276 15.35 7.25506 15.35 7.25736 15.35C7.25966 15.35 7.26196 15.35 7.26427 15.35C7.26659 15.35 7.26891 15.35 7.27123 15.35C7.27356 15.35 7.27589 15.35 7.27823 15.35C7.28057 15.35 7.28292 15.35 7.28527 15.35C7.28762 15.35 7.28998 15.35 7.29235 15.35C7.29471 15.35 7.29708 15.35 7.29946 15.35C7.30184 15.35 7.30423 15.35 7.30662 15.35C7.30901 15.35 7.31141 15.35 7.31381 15.35C7.31622 15.35 7.31863 15.35 7.32105 15.35C7.32346 15.35 7.32589 15.35 7.32832 15.35C7.33075 15.35 7.33319 15.35 7.33563 15.35C7.33807 15.35 7.34052 15.35 7.34298 15.35C7.34544 15.35 7.3479 15.35 7.35037 15.35C7.35284 15.35 7.35531 15.35 7.35779 15.35C7.36028 15.35 7.36276 15.35 7.36526 15.35C7.36775 15.35 7.37025 15.35 7.37276 15.35C7.37527 15.35 7.37778 15.35 7.3803 15.35C7.38282 15.35 7.38534 15.35 7.38787 15.35C7.39041 15.35 7.39294 15.35 7.39549 15.35C7.39803 15.35 7.40058 15.35 7.40314 15.35C7.40569 15.35 7.40826 15.35 7.41083 15.35C7.41339 15.35 7.41597 15.35 7.41855 15.35C7.42113 15.35 7.42372 15.35 7.42631 15.35C7.4289 15.35 7.4315 15.35 7.43411 15.35C7.43671 15.35 7.43933 15.35 7.44194 15.35C7.44456 15.35 7.44718 15.35 7.44981 15.35C7.45244 15.35 7.45508 15.35 7.45772 15.35C7.46036 15.35 7.46301 15.35 7.46566 15.35C7.46831 15.35 7.47097 15.35 7.47364 15.35C7.4763 15.35 7.47897 15.35 7.48165 15.35C7.48433 15.35 7.48701 15.35 7.4897 15.35C7.49239 15.35 7.49508 15.35 7.49778 15.35C7.50048 15.35 7.50319 15.35 7.5059 15.35C7.50861 15.35 7.51133 15.35 7.51405 15.35C7.51678 15.35 7.51951 15.35 7.52224 15.35C7.52498 15.35 7.52772 15.35 7.53047 15.35C7.53321 15.35 7.53596 15.35 7.53872 15.35C7.54148 15.35 7.54424 15.35 7.54701 15.35C7.54978 15.35 7.55256 15.35 7.55534 15.35C7.55812 15.35 7.56091 15.35 7.5637 15.35C7.56649 15.35 7.56929 15.35 7.57209 15.35C7.57489 15.35 7.5777 15.35 7.58052 15.35C7.58333 15.35 7.58615 15.35 7.58898 15.35C7.5918 15.35 7.59463 15.35 7.59747 15.35C7.60031 15.35 7.60315 15.35 7.606 15.35C7.60884 15.35 7.6117 15.35 7.61456 15.35C7.61741 15.35 7.62028 15.35 7.62315 15.35C7.62602 15.35 7.62889 15.35 7.63177 15.35C7.63465 15.35 7.63754 15.35 7.64043 15.35C7.64332 15.35 7.64622 15.35 7.64912 15.35C7.65202 15.35 7.65493 15.35 7.65784 15.35C7.66075 15.35 7.66367 15.35 7.66659 15.35C7.66951 15.35 7.67244 15.35 7.67538 15.35C7.67831 15.35 7.68125 15.35 7.68419 15.35C7.68714 15.35 7.69009 15.35 7.69304 15.35C7.696 15.35 7.69896 15.35 7.70192 15.35C7.70489 15.35 7.70786 15.35 7.71083 15.35C7.71381 15.35 7.71679 15.35 7.71977 15.35C7.72276 15.35 7.72575 15.35 7.72875 15.35C7.73174 15.35 7.73474 15.35 7.73775 15.35C7.74075 15.35 7.74377 15.35 7.74678 15.35C7.7498 15.35 7.75282 15.35 7.75585 15.35C7.75887 15.35 7.7619 15.35 7.76494 15.35C7.76798 15.35 7.77102 15.35 7.77406 15.35C7.77711 15.35 7.78016 15.35 7.78322 15.35C7.78627 15.35 7.78934 15.35 7.7924 15.35C7.79547 15.35 7.79854 15.35 7.80161 15.35C7.80469 15.35 7.80777 15.35 7.81086 15.35C7.81394 15.35 7.81703 15.35 7.82013 15.35C7.82322 15.35 7.82633 15.35 7.82943 15.35C7.83254 15.35 7.83565 15.35 7.83876 15.35C7.84187 15.35 7.84499 15.35 7.84812 15.35C7.85124 15.35 7.85437 15.35 7.85751 15.35C7.86064 15.35 7.86378 15.35 7.86692 15.35C7.87006 15.35 7.87321 15.35 7.87637 15.35C7.87952 15.35 7.88267 15.35 7.88584 15.35C7.889 15.35 7.89217 15.35 7.89534 15.35C7.89851 15.35 7.90168 15.35 7.90486 15.35C7.90804 15.35 7.91123 15.35 7.91442 15.35C7.91761 15.35 7.9208 15.35 7.924 15.35C7.9272 15.35 7.9304 15.35 7.93361 15.35C7.93682 15.35 7.94003 15.35 7.94325 15.35C7.94647 15.35 7.94969 15.35 7.95291 15.35C7.95614 15.35 7.95937 15.35 7.9626 15.35C7.96584 15.35 7.96908 15.35 7.97232 15.35C7.97556 15.35 7.97881 15.35 7.98207 15.35C7.98532 15.35 7.98857 15.35 7.99184 15.35C7.9951 15.35 7.99836 15.35 8.00163 15.35C8.0049 15.35 8.00818 15.35 8.01145 15.35C8.01473 15.35 8.01802 15.35 8.0213 15.35C8.02459 15.35 8.02788 15.35 8.03118 15.35C8.03447 15.35 8.03777 15.35 8.04108 15.35C8.04438 15.35 8.04769 15.35 8.051 15.35C8.05431 15.35 8.05763 15.35 8.06095 15.35C8.06427 15.35 8.0676 15.35 8.07093 15.35C8.07426 15.35 8.07759 15.35 8.08093 15.35C8.08426 15.35 8.08761 15.35 8.09095 15.35C8.0943 15.35 8.09765 15.35 8.101 15.35C8.10435 15.35 8.10771 15.35 8.11107 15.35C8.11444 15.35 8.1178 15.35 8.12117 15.35C8.12454 15.35 8.12792 15.35 8.13129 15.35C8.13467 15.35 8.13805 15.35 8.14144 15.35C8.14483 15.35 8.14822 15.35 8.15161 15.35C8.155 15.35 8.1584 15.35 8.1618 15.35C8.1652 15.35 8.16861 15.35 8.17202 15.35C8.17543 15.35 8.17884 15.35 8.18226 15.35C8.18568 15.35 8.1891 15.35 8.19252 15.35C8.19595 15.35 8.19938 15.35 8.20281 15.35C8.20624 15.35 8.20968 15.35 8.21312 15.35C8.21656 15.35 8.22 15.35 8.22345 15.35C8.2269 15.35 8.23035 15.35 8.2338 15.35C8.23726 15.35 8.24072 15.35 8.24418 15.35C8.24764 15.35 8.25111 15.35 8.25458 15.35C8.25805 15.35 8.26152 15.35 8.265 15.35C8.26847 15.35 8.27195 15.35 8.27544 15.35C8.27892 15.35 8.28241 15.35 8.2859 15.35C8.28939 15.35 8.29289 15.35 8.29639 15.35C8.29989 15.35 8.30339 15.35 8.30689 15.35C8.3104 15.35 8.31391 15.35 8.31742 15.35C8.32093 15.35 8.32445 15.35 8.32797 15.35C8.33149 15.35 8.33501 15.35 8.33854 15.35C8.34207 15.35 8.3456 15.35 8.34913 15.35C8.35266 15.35 8.3562 15.35 8.35974 15.35C8.36328 15.35 8.36682 15.35 8.37037 15.35C8.37392 15.35 8.37747 15.35 8.38102 15.35C8.38458 15.35 8.38813 15.35 8.39169 15.35C8.39525 15.35 8.39882 15.35 8.40239 15.35C8.40595 15.35 8.40952 15.35 8.4131 15.35C8.41667 15.35 8.42025 15.35 8.42383 15.35C8.42741 15.35 8.43099 15.35 8.43458 15.35C8.43816 15.35 8.44175 15.35 8.44535 15.35C8.44894 15.35 8.45254 15.35 8.45613 15.35C8.45973 15.35 8.46334 15.35 8.46694 15.35C8.47055 15.35 8.47416 15.35 8.47777 15.35C8.48138 15.35 8.48499 15.35 8.48861 15.35C8.49223 15.35 8.49585 15.35 8.49948 15.35C8.5031 15.35 8.50673 15.35 8.51036 15.35C8.51399 15.35 8.51762 15.35 8.52126 15.35C8.52489 15.35 8.52853 15.35 8.53217 15.35C8.53582 15.35 8.53946 15.35 8.54311 15.35C8.54676 15.35 8.55041 15.35 8.55406 15.35C8.55772 15.35 8.56137 15.35 8.56503 15.35C8.56869 15.35 8.57235 15.35 8.57602 15.35C8.57968 15.35 8.58335 15.35 8.58702 15.35C8.59069 15.35 8.59437 15.35 8.59805 15.35C8.60172 15.35 8.6054 15.35 8.60908 15.35C8.61277 15.35 8.61645 15.35 8.62014 15.35C8.62383 15.35 8.62752 15.35 8.63121 15.35C8.6349 15.35 8.6386 15.35 8.6423 15.35C8.646 15.35 8.6497 15.35 8.6534 15.35C8.65711 15.35 8.66081 15.35 8.66452 15.35C8.66823 15.35 8.67195 15.35 8.67566 15.35C8.67937 15.35 8.68309 15.35 8.68681 15.35C8.69053 15.35 8.69425 15.35 8.69798 15.35C8.7017 15.35 8.70543 15.35 8.70916 15.35C8.71289 15.35 8.71662 15.35 8.72036 15.35C8.72409 15.35 8.72783 15.35 8.73157 15.35C8.73531 15.35 8.73906 15.35 8.7428 15.35C8.74655 15.35 8.75029 15.35 8.75404 15.35C8.75779 15.35 8.76155 15.35 8.7653 15.35C8.76906 15.35 8.77281 15.35 8.77657 15.35C8.78033 15.35 8.78409 15.35 8.78786 15.35C8.79162 15.35 8.79539 15.35 8.79916 15.35C8.80293 15.35 8.8067 15.35 8.81047 15.35C8.81425 15.35 8.81802 15.35 8.8218 15.35C8.82558 15.35 8.82936 15.35 8.83314 15.35C8.83692 15.35 8.84071 15.35 8.8445 15.35C8.84828 15.35 8.85207 15.35 8.85586 15.35C8.85966 15.35 8.86345 15.35 8.86725 15.35C8.87104 15.35 8.87484 15.35 8.87864 15.35C8.88244 15.35 8.88624 15.35 8.89005 15.35C8.89385 15.35 8.89766 15.35 8.90147 15.35C8.90527 15.35 8.90909 15.35 8.9129 15.35C8.91671 15.35 8.92053 15.35 8.92434 15.35C8.92816 15.35 8.93198 15.35 8.9358 15.35C8.93962 15.35 8.94344 15.35 8.94727 15.35C8.95109 15.35 8.95492 15.35 8.95875 15.35C8.96258 15.35 8.96641 15.35 8.97024 15.35C8.97407 15.35 8.97791 15.35 8.98174 15.35C8.98558 15.35 8.98942 15.35 8.99326 15.35C8.9971 15.35 9.00094 15.35 9.00479 15.35C9.00863 15.35 9.01247 15.35 9.01632 15.35C9.02017 15.35 9.02402 15.35 9.02787 15.35C9.03172 15.35 9.03557 15.35 9.03943 15.35C9.04328 15.35 9.04714 15.35 9.051 15.35C9.05486 15.35 9.05872 15.35 9.06258 15.35C9.06644 15.35 9.0703 15.35 9.07417 15.35C9.07803 15.35 9.0819 15.35 9.08577 15.35C9.08964 15.35 9.09351 15.35 9.09738 15.35C9.10125 15.35 9.10512 15.35 9.109 15.35C9.11287 15.35 9.11675 15.35 9.12063 15.35C9.12451 15.35 9.12838 15.35 9.13227 15.35C9.13615 15.35 9.14003 15.35 9.14391 15.35C9.1478 15.35 9.15168 15.35 9.15557 15.35C9.15946 15.35 9.16335 15.35 9.16724 15.35C9.17113 15.35 9.17502 15.35 9.17891 15.35C9.1828 15.35 9.1867 15.35 9.1906 15.35C9.19449 15.35 9.19839 15.35 9.20229 15.35C9.20619 15.35 9.21009 15.35 9.21399 15.35C9.21789 15.35 9.22179 15.35 9.2257 15.35C9.2296 15.35 9.23351 15.35 9.23741 15.35C9.24132 15.35 9.24523 15.35 9.24914 15.35C9.25305 15.35 9.25696 15.35 9.26087 15.35C9.26478 15.35 9.26869 15.35 9.27261 15.35C9.27652 15.35 9.28044 15.35 9.28435 15.35C9.28827 15.35 9.29219 15.35 9.29611 15.35C9.30003 15.35 9.30395 15.35 9.30787 15.35C9.31179 15.35 9.31571 15.35 9.31964 15.35C9.32356 15.35 9.32748 15.35 9.33141 15.35C9.33534 15.35 9.33926 15.35 9.34319 15.35C9.34712 15.35 9.35105 15.35 9.35498 15.35C9.35891 15.35 9.36284 15.35 9.36677 15.35C9.3707 15.35 9.37464 15.35 9.37857 15.35C9.38251 15.35 9.38644 15.35 9.39038 15.35C9.39431 15.35 9.39825 15.35 9.40219 15.35C9.40613 15.35 9.41006 15.35 9.414 15.35C9.41794 15.35 9.42189 15.35 9.42583 15.35C9.42977 15.35 9.43371 15.35 9.43765 15.35C9.4416 15.35 9.44554 15.35 9.44949 15.35C9.45343 15.35 9.45738 15.35 9.46132 15.35C9.46527 15.35 9.46922 15.35 9.47317 15.35C9.47711 15.35 9.48106 15.35 9.48501 15.35C9.48896 15.35 9.49291 15.35 9.49686 15.35C9.50081 15.35 9.50477 15.35 9.50872 15.35C9.51267 15.35 9.51662 15.35 9.52058 15.35C9.52453 15.35 9.52849 15.35 9.53244 15.35C9.5364 15.35 9.54035 15.35 9.54431 15.35C9.54827 15.35 9.55222 15.35 9.55618 15.35C9.56014 15.35 9.5641 15.35 9.56805 15.35C9.57201 15.35 9.57597 15.35 9.57993 15.35C9.58389 15.35 9.58785 15.35 9.59181 15.35C9.59577 15.35 9.59973 15.35 9.6037 15.35C9.60766 15.35 9.61162 15.35 9.61558 15.35C9.61955 15.35 9.62351 15.35 9.62747 15.35C9.63144 15.35 9.6354 15.35 9.63936 15.35C9.64333 15.35 9.64729 15.35 9.65126 15.35C9.65522 15.35 9.65919 15.35 9.66315 15.35C9.66712 15.35 9.67109 15.35 9.67505 15.35C9.67902 15.35 9.68299 15.35 9.68695 15.35C9.69092 15.35 9.69489 15.35 9.69885 15.35C9.70282 15.35 9.70679 15.35 9.71076 15.35C9.71473 15.35 9.71869 15.35 9.72266 15.35C9.72663 15.35 9.7306 15.35 9.73457 15.35C9.73854 15.35 9.74251 15.35 9.74648 15.35C9.75045 15.35 9.75442 15.35 9.75838 15.35C9.76235 15.35 9.76632 15.35 9.77029 15.35C9.77426 15.35 9.77823 15.35 9.7822 15.35C9.78617 15.35 9.79014 15.35 9.79411 15.35C9.79808 15.35 9.80205 15.35 9.80602 15.35C9.80999 15.35 9.81396 15.35 9.81793 15.35C9.8219 15.35 9.82587 15.35 9.82984 15.35C9.83381 15.35 9.83778 15.35 9.84175 15.35C9.84572 15.35 9.84969 15.35 9.85366 15.35C9.85763 15.35 9.8616 15.35 9.86557 15.35C9.86954 15.35 9.87351 15.35 9.87748 15.35C9.88145 15.35 9.88542 15.35 9.88939 15.35C9.89335 15.35 9.89732 15.35 9.90129 15.35C9.90526 15.35 9.90923 15.35 9.9132 15.35C9.91716 15.35 9.92113 15.35 9.9251 15.35C9.92907 15.35 9.93304 15.35 9.937 15.35C9.94097 15.35 9.94494 15.35 9.9489 15.35C9.95287 15.35 9.95684 15.35 9.9608 15.35C9.96477 15.35 9.96873 15.35 9.9727 15.35C9.97666 15.35 9.98063 15.35 9.98459 15.35C9.98856 15.35 9.99252 15.35 9.99648 15.35C10.0004 15.35 10.0044 15.35 10.0084 15.35C10.0123 15.35 10.0163 15.35 10.0203 15.35C10.0242 15.35 10.0282 15.35 10.0321 15.35C10.0361 15.35 10.0401 15.35 10.044 15.35C10.048 15.35 10.0519 15.35 10.0559 15.35C10.0599 15.35 10.0638 15.35 10.0678 15.35C10.0717 15.35 10.0757 15.35 10.0797 15.35C10.0836 15.35 10.0876 15.35 10.0915 15.35C10.0955 15.35 10.0994 15.35 10.1034 15.35C10.1073 15.35 10.1113 15.35 10.1152 15.35C10.1192 15.35 10.1231 15.35 10.1271 15.35C10.1311 15.35 10.135 15.35 10.139 15.35C10.1429 15.35 10.1468 15.35 10.1508 15.35C10.1547 15.35 10.1587 15.35 10.1626 15.35C10.1666 15.35 10.1705 15.35 10.1745 15.35C10.1784 15.35 10.1824 15.35 10.1863 15.35C10.1903 15.35 10.1942 15.35 10.1981 15.35C10.2021 15.35 10.206 15.35 10.21 15.35C10.2139 15.35 10.2178 15.35 10.2218 15.35C10.2257 15.35 10.2297 15.35 10.2336 15.35C10.2375 15.35 10.2415 15.35 10.2454 15.35C10.2493 15.35 10.2533 15.35 10.2572 15.35C10.2611 15.35 10.2651 15.35 10.269 15.35C10.2729 15.35 10.2769 15.35 10.2808 15.35C10.2847 15.35 10.2886 15.35 10.2926 15.35C10.2965 15.35 10.3004 15.35 10.3043 15.35C10.3083 15.35 10.3122 15.35 10.3161 15.35C10.32 15.35 10.3239 15.35 10.3279 15.35C10.3318 15.35 10.3357 15.35 10.3396 15.35C10.3435 15.35 10.3475 15.35 10.3514 15.35C10.3553 15.35 10.3592 15.35 10.3631 15.35C10.367 15.35 10.3709 15.35 10.3748 15.35C10.3788 15.35 10.3827 15.35 10.3866 15.35C10.3905 15.35 10.3944 15.35 10.3983 15.35C10.4022 15.35 10.4061 15.35 10.41 15.35C10.4139 15.35 10.4178 15.35 10.4217 15.35C10.4256 15.35 10.4295 15.35 10.4334 15.35C10.4373 15.35 10.4412 15.35 10.4451 15.35C10.449 15.35 10.4529 15.35 10.4568 15.35C10.4606 15.35 10.4645 15.35 10.4684 15.35C10.4723 15.35 10.4762 15.35 10.4801 15.35C10.484 15.35 10.4878 15.35 10.4917 15.35C10.4956 15.35 10.4995 15.35 10.5034 15.35C10.5072 15.35 10.5111 15.35 10.515 15.35C10.5189 15.35 10.5227 15.35 10.5266 15.35C10.5305 15.35 10.5344 15.35 10.5382 15.35C10.5421 15.35 10.546 15.35 10.5498 15.35C10.5537 15.35 10.5576 15.35 10.5614 15.35C10.5653 15.35 10.5691 15.35 10.573 15.35C10.5769 15.35 10.5807 15.35 10.5846 15.35C10.5884 15.35 10.5923 15.35 10.5961 15.35C10.6 15.35 10.6038 15.35 10.6077 15.35C10.6115 15.35 10.6154 15.35 10.6192 15.35C10.6231 15.35 10.6269 15.35 10.6308 15.35C10.6346 15.35 10.6384 15.35 10.6423 15.35C10.6461 15.35 10.6499 15.35 10.6538 15.35C10.6576 15.35 10.6614 15.35 10.6653 15.35C10.6691 15.35 10.6729 15.35 10.6767 15.35C10.6806 15.35 10.6844 15.35 10.6882 15.35C10.692 15.35 10.6959 15.35 10.6997 15.35C10.7035 15.35 10.7073 15.35 10.7111 15.35C10.7149 15.35 10.7187 15.35 10.7226 15.35C10.7264 15.35 10.7302 15.35 10.734 15.35C10.7378 15.35 10.7416 15.35 10.7454 15.35C10.7492 15.35 10.753 15.35 10.7568 15.35C10.7606 15.35 10.7644 15.35 10.7682 15.35C10.772 15.35 10.7757 15.35 10.7795 15.35C10.7833 15.35 10.7871 15.35 10.7909 15.35C10.7947 15.35 10.7985 15.35 10.8022 15.35C10.806 15.35 10.8098 15.35 10.8136 15.35C10.8173 15.35 10.8211 15.35 10.8249 15.35C10.8287 15.35 10.8324 15.35 10.8362 15.35C10.8399 15.35 10.8437 15.35 10.8475 15.35C10.8512 15.35 10.855 15.35 10.8587 15.35C10.8625 15.35 10.8663 15.35 10.87 15.35C10.8738 15.35 10.8775 15.35 10.8812 15.35C10.885 15.35 10.8887 15.35 10.8925 15.35C10.8962 15.35 10.9 15.35 10.9037 15.35C10.9074 15.35 10.9112 15.35 10.9149 15.35C10.9186 15.35 10.9224 15.35 10.9261 15.35C10.9298 15.35 10.9335 15.35 10.9372 15.35C10.941 15.35 10.9447 15.35 10.9484 15.35C10.9521 15.35 10.9558 15.35 10.9595 15.35C10.9633 15.35 10.967 15.35 10.9707 15.35C10.9744 15.35 10.9781 15.35 10.9818 15.35C10.9855 15.35 10.9892 15.35 10.9929 15.35C10.9966 15.35 11.0002 15.35 11.0039 15.35C11.0076 15.35 11.0113 15.35 11.015 15.35C11.0187 15.35 11.0224 15.35 11.026 15.35C11.0297 15.35 11.0334 15.35 11.0371 15.35C11.0407 15.35 11.0444 15.35 11.0481 15.35C11.0517 15.35 11.0554 15.35 11.0591 15.35C11.0627 15.35 11.0664 15.35 11.07 15.35C11.0737 15.35 11.0773 15.35 11.081 15.35C11.0846 15.35 11.0883 15.35 11.0919 15.35C11.0956 15.35 11.0992 15.35 11.1028 15.35C11.1065 15.35 11.1101 15.35 11.1137 15.35C11.1174 15.35 11.121 15.35 11.1246 15.35C11.1283 15.35 11.1319 15.35 11.1355 15.35C11.1391 15.35 11.1427 15.35 11.1463 15.35C11.15 15.35 11.1536 15.35 11.1572 15.35C11.1608 15.35 11.1644 15.35 11.168 15.35C11.1716 15.35 11.1752 15.35 11.1788 15.35C11.1824 15.35 11.186 15.35 11.1895 15.35C11.1931 15.35 11.1967 15.35 11.2003 15.35C11.2039 15.35 11.2075 15.35 11.211 15.35C11.2146 15.35 11.2182 15.35 11.2217 15.35C11.2253 15.35 11.2289 15.35 11.2324 15.35C11.236 15.35 11.2396 15.35 11.2431 15.35C11.2467 15.35 11.2502 15.35 11.2538 15.35C11.2573 15.35 11.2609 15.35 11.2644 15.35C11.2679 15.35 11.2715 15.35 11.275 15.35C11.2785 15.35 11.2821 15.35 11.2856 15.35C11.2891 15.35 11.2927 15.35 11.2962 15.35C11.2997 15.35 11.3032 15.35 11.3067 15.35C11.3102 15.35 11.3138 15.35 11.3173 15.35C11.3208 15.35 11.3243 15.35 11.3278 15.35C11.3313 15.35 11.3348 15.35 11.3383 15.35C11.3418 15.35 11.3452 15.35 11.3487 15.35C11.3522 15.35 11.3557 15.35 11.3592 15.35C11.3626 15.35 11.3661 15.35 11.3696 15.35C11.3731 15.35 11.3765 15.35 11.38 15.35C11.3835 15.35 11.3869 15.35 11.3904 15.35C11.3938 15.35 11.3973 15.35 11.4007 15.35C11.4042 15.35 11.4076 15.35 11.4111 15.35C11.4145 15.35 11.4179 15.35 11.4214 15.35C11.4248 15.35 11.4282 15.35 11.4317 15.35C11.4351 15.35 11.4385 15.35 11.4419 15.35C11.4454 15.35 11.4488 15.35 11.4522 15.35C11.4556 15.35 11.459 15.35 11.4624 15.35C11.4658 15.35 11.4692 15.35 11.4726 15.35C11.476 15.35 11.4794 15.35 11.4828 15.35C11.4862 15.35 11.4895 15.35 11.4929 15.35C11.4963 15.35 11.4997 15.35 11.503 15.35C11.5064 15.35 11.5098 15.35 11.5131 15.35C11.5165 15.35 11.5199 15.35 11.5232 15.35C11.5266 15.35 11.5299 15.35 11.5333 15.35C11.5366 15.35 11.54 15.35 11.5433 15.35C11.5466 15.35 11.55 15.35 11.5533 15.35C11.5566 15.35 11.56 15.35 11.5633 15.35C11.5666 15.35 11.5699 15.35 11.5732 15.35C11.5765 15.35 11.5799 15.35 11.5832 15.35C11.5865 15.35 11.5898 15.35 11.5931 15.35C11.5964 15.35 11.5997 15.35 11.6029 15.35C11.6062 15.35 11.6095 15.35 11.6128 15.35C11.6161 15.35 11.6194 15.35 11.6226 15.35C11.6259 15.35 11.6292 15.35 11.6324 15.35C11.6357 15.35 11.6389 15.35 11.6422 15.35C11.6455 15.35 11.6487 15.35 11.6519 15.35C11.6552 15.35 11.6584 15.35 11.6617 15.35C11.6649 15.35 11.6681 15.35 11.6714 15.35C11.6746 15.35 11.6778 15.35 11.681 15.35C11.6842 15.35 11.6875 15.35 11.6907 15.35C11.6939 15.35 11.6971 15.35 11.7003 15.35C11.7035 15.35 11.7067 15.35 11.7099 15.35C11.7131 15.35 11.7162 15.35 11.7194 15.35C11.7226 15.35 11.7258 15.35 11.729 15.35C11.7321 15.35 11.7353 15.35 11.7385 15.35C11.7416 15.35 11.7448 15.35 11.7479 15.35C11.7511 15.35 11.7542 15.35 11.7574 15.35C11.7605 15.35 11.7637 15.35 11.7668 15.35C11.7699 15.35 11.7731 15.35 11.7762 15.35C11.7793 15.35 11.7824 15.35 11.7856 15.35C11.7887 15.35 11.7918 15.35 11.7949 15.35C11.798 15.35 11.8011 15.35 11.8042 15.35C11.8073 15.35 11.8104 15.35 11.8135 15.35C11.8166 15.35 11.8196 15.35 11.8227 15.35C11.8258 15.35 11.8289 15.35 11.8319 15.35C11.835 15.35 11.8381 15.35 11.8411 15.35C11.8442 15.35 11.8472 15.35 11.8503 15.35C11.8533 15.35 11.8564 15.35 11.8594 15.35C11.8625 15.35 11.8655 15.35 11.8685 15.35C11.8715 15.35 11.8746 15.35 11.8776 15.35C11.8806 15.35 11.8836 15.35 11.8866 15.35C11.8896 15.35 11.8926 15.35 11.8956 15.35C11.8986 15.35 11.9016 15.35 11.9046 15.35C11.9076 15.35 11.9106 15.35 11.9135 15.35C11.9165 15.35 11.9195 15.35 11.9225 15.35C11.9254 15.35 11.9284 15.35 11.9313 15.35C11.9343 15.35 11.9373 15.35 11.9402 15.35C11.9431 15.35 11.9461 15.35 11.949 15.35C11.952 15.35 11.9549 15.35 11.9578 15.35C11.9607 15.35 11.9637 15.35 11.9666 15.35C11.9695 15.35 11.9724 15.35 11.9753 15.35C11.9782 15.35 11.9811 15.35 11.984 15.35C11.9869 15.35 11.9898 15.35 11.9927 15.35C11.9955 15.35 11.9984 15.35 12.0013 15.35C12.0041 15.35 12.007 15.35 12.0099 15.35C12.0127 15.35 12.0156 15.35 12.0184 15.35C12.0213 15.35 12.0241 15.35 12.027 15.35C12.0298 15.35 12.0326 15.35 12.0355 15.35C12.0383 15.35 12.0411 15.35 12.0439 15.35C12.0467 15.35 12.0496 15.35 12.0524 15.35C12.0552 15.35 12.058 15.35 12.0608 15.35C12.0636 15.35 12.0663 15.35 12.0691 15.35C12.0719 15.35 12.0747 15.35 12.0775 15.35C12.0802 15.35 12.083 15.35 12.0858 15.35C12.0885 15.35 12.0913 15.35 12.094 15.35C12.0968 15.35 12.0995 15.35 12.1022 15.35C12.105 15.35 12.1077 15.35 12.1104 15.35C12.1132 15.35 12.1159 15.35 12.1186 15.35C12.1213 15.35 12.124 15.35 12.1267 15.35C12.1294 15.35 12.1321 15.35 12.1348 15.35C12.1375 15.35 12.1402 15.35 12.1429 15.35V14.65Z" fill="black"/>
</svg>
