<svg width="24" height="24" viewBox="0 0 24 24" fill="none" xmlns="http://www.w3.org/2000/svg">
<rect width="24" height="24" fill="white"/>
<path fill-rule="evenodd" clip-rule="evenodd" d="M11.7661 4.27885C11.9312 4.17317 12.1428 4.17369 12.3074 4.28019L18.7713 8.4635C18.9137 8.55564 18.9997 8.71367 18.9997 8.88326V15.1474C18.9997 15.317 18.9137 15.475 18.7714 15.5672L12.3074 19.7514C12.1429 19.8579 11.9312 19.8584 11.7661 19.7527L5.23089 15.5685C5.08733 15.4766 5.00049 15.3179 5.00049 15.1474V8.88369C5.00049 8.71322 5.08734 8.5545 5.23091 8.46259L11.7661 4.27885ZM6.00049 9.77818V14.8738L11.5357 18.4178V13.1823L6.00049 9.77818ZM12.5357 13.1807V18.4124L17.9997 14.8755V9.78297L12.5357 13.1807ZM17.5664 8.87483L12.0343 12.3149L6.44113 8.87519L12.0343 5.29457L17.5664 8.87483Z" fill="#808080"/>
</svg>
