<svg width="24" height="24" viewBox="0 0 24 24" fill="none" xmlns="http://www.w3.org/2000/svg">
<path fill-rule="evenodd" clip-rule="evenodd" d="M6.3501 6.3999C6.07395 6.3999 5.8501 6.62376 5.8501 6.8999V16.0999C5.8501 16.376 6.07396 16.5999 6.3501 16.5999H17.6501C17.9262 16.5999 18.1501 16.376 18.1501 16.0999V8.2999C18.1501 8.02376 17.9262 7.7999 17.6501 7.7999H11.185H11.0034L10.8641 7.68332L9.47004 6.51648C9.38006 6.44117 9.26646 6.3999 9.14912 6.3999H6.3501ZM4.8501 6.8999C4.8501 6.07147 5.52167 5.3999 6.3501 5.3999H9.14912C9.50114 5.3999 9.84195 5.52371 10.1119 5.74965L11.3667 6.7999H17.6501C18.4785 6.7999 19.1501 7.47148 19.1501 8.2999V16.0999C19.1501 16.9283 18.4785 17.5999 17.6501 17.5999H6.3501C5.52167 17.5999 4.8501 16.9283 4.8501 16.0999V6.8999Z" fill="#808080"/>
</svg>
